<svg width="40" height="40" viewBox="0 0 40 40" fill="none" xmlns="http://www.w3.org/2000/svg">
<path d="M39.2188 19.2391C39.1609 19.1125 37.7922 16.0734 34.7688 13.05C30.7234 9.01094 25.625 6.875 20 6.875C14.375 6.875 9.27657 9.01094 5.23594 13.05C2.2125 16.0734 0.843753 19.1125 0.781253 19.2391C0.675399 19.4791 0.620728 19.7385 0.620728 20.0008C0.620728 20.2631 0.675399 20.5225 0.781253 20.7625C0.839066 20.8906 2.20782 23.9281 5.23282 26.9516C9.27657 30.9906 14.375 33.125 20 33.125C25.625 33.125 30.7234 30.9906 34.7625 26.9516C37.7875 23.9281 39.1563 20.8906 39.2141 20.7625C39.3207 20.5228 39.3761 20.2636 39.3769 20.0013C39.3777 19.739 39.3239 19.4794 39.2188 19.2391ZM32.0219 24.3953C28.6672 27.6984 24.6234 29.375 20 29.375C15.3766 29.375 11.3328 27.6984 7.98282 24.3937C6.6646 23.0894 5.53069 21.6112 4.6125 20C5.53096 18.3895 6.66485 16.9118 7.98282 15.6078C11.3344 12.3016 15.3766 10.625 20 10.625C24.6234 10.625 28.6656 12.3016 32.0172 15.6078C33.3353 16.9117 34.4692 18.3894 35.3875 20C34.4692 21.6111 33.3353 23.0893 32.0172 24.3937L32.0219 24.3953ZM20 13.125C18.6403 13.125 17.311 13.5282 16.1805 14.2836C15.0499 15.0391 14.1687 16.1128 13.6483 17.3691C13.128 18.6253 12.9918 20.0076 13.2571 21.3412C13.5224 22.6749 14.1772 23.8999 15.1386 24.8614C16.1001 25.8228 17.3251 26.4776 18.6588 26.7429C19.9924 27.0082 21.3747 26.872 22.631 26.3517C23.8872 25.8313 24.9609 24.9501 25.7164 23.8195C26.4718 22.689 26.875 21.3597 26.875 20C26.8729 18.1773 26.1479 16.4298 24.8591 15.1409C23.5702 13.8521 21.8227 13.1271 20 13.125ZM20 23.125C19.3819 23.125 18.7778 22.9417 18.2638 22.5983C17.7499 22.255 17.3494 21.7669 17.1129 21.1959C16.8764 20.6249 16.8145 19.9965 16.935 19.3903C17.0556 18.7842 17.3533 18.2273 17.7903 17.7903C18.2273 17.3533 18.7842 17.0556 19.3903 16.935C19.9965 16.8145 20.6249 16.8764 21.1959 17.1129C21.7669 17.3494 22.255 17.7499 22.5983 18.2638C22.9417 18.7777 23.125 19.3819 23.125 20C23.125 20.8288 22.7958 21.6237 22.2097 22.2097C21.6237 22.7958 20.8288 23.125 20 23.125Z" fill="#46474C"/>
</svg>
