<svg width="42" height="48" viewBox="0 0 42 48" fill="none" xmlns="http://www.w3.org/2000/svg">
<path d="M10.5015 27C10.1036 27 9.72203 27.158 9.44069 27.4393C9.15934 27.7206 9.00129 28.1022 9.00129 28.5V34.5C9.00129 34.8978 9.15934 35.2794 9.44069 35.5607C9.72203 35.842 10.1036 36 10.5015 36C10.8994 36 11.281 35.842 11.5623 35.5607C11.8437 35.2794 12.0017 34.8978 12.0017 34.5V34.002H13.0039C13.9325 34.002 14.8231 33.6331 15.4798 32.9766C16.1365 32.32 16.5054 31.4295 16.5054 30.501C16.5054 29.5725 16.1365 28.682 15.4798 28.0254C14.8231 27.3689 13.9325 27 13.0039 27H10.5015ZM13.0039 31.002H12.0017V30H13.0039C13.1368 30 13.2642 30.0528 13.3582 30.1467C13.4521 30.2407 13.5049 30.3681 13.5049 30.501C13.5049 30.6339 13.4521 30.7613 13.3582 30.8553C13.2642 30.9492 13.1368 31.002 13.0039 31.002ZM27.0039 28.497C27.0047 28.0997 27.1631 27.7189 27.4443 27.4383C27.7256 27.1576 28.1067 27 28.5041 27H31.5015C31.8994 27 32.281 27.158 32.5623 27.4393C32.8437 27.7206 33.0017 28.1022 33.0017 28.5C33.0017 28.8978 32.8437 29.2794 32.5623 29.5607C32.281 29.842 31.8994 30 31.5015 30H30.0043V31.005H31.5045C31.9024 31.005 32.284 31.163 32.5653 31.4443C32.8467 31.7256 33.0047 32.1072 33.0047 32.505C33.0047 32.9028 32.8467 33.2844 32.5653 33.5657C32.284 33.847 31.9024 34.005 31.5045 34.005H30.0043L30.0073 34.497C30.0077 34.694 29.9693 34.8891 29.8942 35.0713C29.8192 35.2534 29.709 35.419 29.57 35.5585C29.2892 35.8404 28.908 35.9992 28.5101 36C28.1122 36.0008 27.7303 35.8435 27.4484 35.5628C27.1665 35.282 27.0077 34.9008 27.0069 34.503L27.0039 32.502V28.497ZM19.5028 27C19.1049 27 18.7233 27.158 18.442 27.4393C18.1606 27.7206 18.0026 28.1022 18.0026 28.5V34.5C18.0026 34.8978 18.1606 35.2794 18.442 35.5607C18.7233 35.842 19.1049 36 19.5028 36H21.009C22.2026 36 23.3474 35.5259 24.1914 34.682C25.0355 33.8381 25.5096 32.6935 25.5096 31.5C25.5096 30.3065 25.0355 29.1619 24.1914 28.318C23.3474 27.4741 22.2026 27 21.009 27H19.5028ZM21.003 33V30H21.009C21.4069 30 21.7885 30.158 22.0698 30.4393C22.3512 30.7206 22.5092 31.1022 22.5092 31.5C22.5092 31.8978 22.3512 32.2794 22.0698 32.5607C21.7885 32.842 21.4069 33 21.009 33H21.003ZM21.009 13.5V0H7.50107C6.30743 0 5.16267 0.474106 4.31864 1.31802C3.4746 2.16193 3.00043 3.30653 3.00043 4.5V21.246C2.12305 21.5562 1.3634 22.1306 0.826068 22.8903C0.288733 23.65 0.000132497 24.5575 0 25.488V37.497C0.000132497 38.4275 0.288733 39.335 0.826068 40.0947C1.3634 40.8544 2.12305 41.4288 3.00043 41.739V43.5C3.00043 44.6935 3.4746 45.8381 4.31864 46.682C5.16267 47.5259 6.30743 48 7.50107 48H34.5049C35.6986 48 36.8433 47.5259 37.6874 46.682C38.5314 45.8381 39.0056 44.6935 39.0056 43.5V41.739C39.8818 41.4278 40.6402 40.853 41.1764 40.0934C41.7126 39.3338 42.0003 38.4267 42 37.497V25.488C42.0003 24.5583 41.7126 23.6512 41.1764 22.8916C40.6402 22.132 39.8818 21.5572 39.0056 21.246V18H25.5036C24.31 18 23.1652 17.5259 22.3212 16.682C21.4772 15.8381 21.003 14.6935 21.003 13.5M4.50664 23.988H37.5024C37.9002 23.988 38.2818 24.146 38.5632 24.4273C38.8445 24.7086 39.0026 25.0902 39.0026 25.488V37.497C39.0026 37.8948 38.8445 38.2764 38.5632 38.5577C38.2818 38.839 37.9002 38.997 37.5024 38.997H4.50664C4.10876 38.997 3.72718 38.839 3.44583 38.5577C3.16449 38.2764 3.00643 37.8948 3.00643 37.497V25.488C3.00643 25.0902 3.16449 24.7086 3.44583 24.4273C3.72718 24.146 4.10876 23.988 4.50664 23.988ZM24.0034 13.5V0.75L38.2555 15H25.5036C25.1058 15 24.7242 14.842 24.4428 14.5607C24.1615 14.2794 24.0034 13.8978 24.0034 13.5Z" fill="#46474C"/>
</svg>
